<?xml version="1.0" encoding="UTF-8"?><svg id="Ebene_1" xmlns="http://www.w3.org/2000/svg" width="176.23" height="15" viewBox="0 0 176.23 15"><defs><style>.cls-1{fill:#fff;}</style></defs><path class="cls-1" d="M11.5,10.39c0,.88-.22,1.66-.68,2.36-.46.7-1.12,1.24-1.98,1.64-.88.4-1.9.6-3.1.6-1.44,0-2.62-.26-3.54-.82-.66-.38-1.2-.9-1.6-1.56-.42-.64-.62-1.28-.62-1.9,0-.36.12-.66.38-.92.22-.24.54-.36.92-.36.3,0,.58.1.78.3.22.2.4.5.54.88.18.46.38.84.6,1.16.22.3.52.56.9.76s.9.3,1.54.3c.88,0,1.58-.2,2.12-.6s.82-.92.82-1.52c0-.48-.14-.88-.44-1.18s-.68-.52-1.14-.68c-.46-.16-1.08-.32-1.86-.5-1.04-.24-1.92-.52-2.62-.86-.7-.32-1.26-.78-1.68-1.34S.24,4.89.24,4.05s.22-1.5.66-2.12c.44-.62,1.06-1.1,1.88-1.42S4.57.02,5.67.02c.9,0,1.66.12,2.32.34.66.22,1.18.52,1.62.88.42.36.74.76.94,1.16s.3.8.3,1.18c0,.34-.12.66-.38.94s-.56.42-.92.42c-.34,0-.6-.08-.76-.26-.18-.16-.36-.44-.56-.82-.26-.54-.58-.98-.94-1.28s-.96-.46-1.78-.46c-.76,0-1.38.16-1.84.5s-.7.74-.7,1.2c0,.28.08.54.24.76.16.22.38.4.66.54.28.16.56.28.84.36.28.08.76.22,1.4.38.82.2,1.56.4,2.22.64.66.24,1.22.52,1.7.84.46.32.82.74,1.08,1.26.26.44.4,1.06.4,1.8Z"/><path class="cls-1" d="M20.35,0C21.85,0,23.15.3,24.23.92c1.08.62,1.9,1.48,2.44,2.6.56,1.12.84,2.44.84,3.95,0,1.12-.16,2.14-.46,3.06s-.76,1.72-1.36,2.38c-.6.68-1.36,1.18-2.24,1.54-.88.36-1.9.54-3.04.54s-2.16-.18-3.04-.56c-.9-.36-1.64-.88-2.24-1.54-.6-.66-1.06-1.46-1.36-2.4s-.46-1.94-.46-3.04.16-2.14.48-3.06c.32-.94.78-1.72,1.4-2.38.6-.66,1.34-1.16,2.22-1.5C18.26.18,19.25,0,20.35,0ZM24.53,7.45c0-1.06-.18-1.98-.52-2.76s-.84-1.36-1.46-1.76c-.64-.4-1.36-.6-2.2-.6-.58,0-1.12.12-1.62.34-.5.22-.92.54-1.28.96-.36.42-.64.96-.86,1.62-.2.66-.32,1.4-.32,2.22s.1,1.58.32,2.24c.2.66.5,1.22.88,1.66s.82.76,1.3.98c.5.22,1.04.32,1.62.32.76,0,1.44-.18,2.08-.56.64-.38,1.14-.96,1.5-1.74.38-.8.56-1.78.56-2.92Z"/><path class="cls-1" d="M32.9,1.78v10.55h5.95c.48,0,.84.12,1.1.34s.38.52.38.88-.12.64-.38.86c-.26.22-.62.34-1.1.34h-7.09c-.64,0-1.1-.14-1.38-.42s-.42-.74-.42-1.38V1.78c0-.6.14-1.04.4-1.34s.62-.44,1.06-.44.8.14,1.08.44c.26.3.4.74.4,1.34Z"/><path class="cls-1" d="M51.23,13.1l-.7-1.82h-5.87l-.7,1.86c-.28.72-.5,1.22-.7,1.48s-.5.38-.94.38c-.36,0-.7-.14-.98-.4-.28-.28-.42-.58-.42-.92,0-.2.04-.4.1-.62.06-.2.18-.5.32-.88l3.72-9.43c.1-.28.24-.6.38-.98.14-.38.3-.7.48-.94.16-.26.38-.46.66-.6C46.86.08,47.2,0,47.6,0s.74.08,1.02.24c.28.16.5.36.66.6.16.24.3.5.42.78s.26.66.44,1.12l3.77,9.35c.3.72.44,1.22.44,1.56s-.14.64-.42.92-.62.42-1.02.42c-.24,0-.42-.04-.6-.12-.16-.08-.3-.2-.42-.34s-.24-.36-.36-.66c-.08-.28-.2-.54-.3-.76ZM45.42,9.07h4.33l-2.18-5.97-2.16,5.97Z"/><path class="cls-1" d="M60.46,8.53h-1.02v4.65c0,.62-.14,1.06-.4,1.36-.28.28-.62.44-1.06.44s-.84-.16-1.08-.46c-.26-.3-.38-.74-.38-1.34V2.04c0-.64.14-1.1.42-1.38.28-.28.74-.42,1.38-.42h4.77c.66,0,1.22.02,1.7.08.46.06.9.18,1.26.34.46.2.86.46,1.2.82s.62.76.8,1.24.28.98.28,1.5c0,1.08-.3,1.94-.92,2.6-.62.64-1.54,1.1-2.78,1.38.52.28,1.02.68,1.5,1.22.48.54.9,1.12,1.28,1.72s.66,1.16.88,1.66c.2.5.32.84.32,1.02,0,.2-.06.38-.18.56s-.28.34-.5.44-.46.16-.74.16c-.32,0-.6-.08-.84-.24-.22-.16-.42-.36-.58-.58-.16-.24-.38-.58-.66-1.04l-1.18-1.96c-.42-.72-.8-1.26-1.14-1.64s-.68-.64-1.02-.78c-.36-.12-.8-.2-1.32-.2ZM62.14,2.46h-2.7v3.97h2.64c.7,0,1.3-.06,1.78-.18s.84-.32,1.1-.62.38-.7.38-1.22c0-.4-.1-.76-.3-1.06-.2-.3-.48-.54-.86-.68-.34-.16-1.02-.22-2.04-.22Z"/><path class="cls-1" d="M85.69,2.52h-6.61v3.56h6.09c.44,0,.78.1,1,.3.22.2.34.46.34.8,0,.32-.1.6-.32.8s-.56.32-1,.32h-6.09v4.11h6.83c.46,0,.8.1,1.04.32s.36.5.36.86c0,.34-.12.62-.36.84-.24.22-.58.32-1.04.32h-7.97c-.64,0-1.1-.14-1.38-.42s-.42-.74-.42-1.38V2.04c0-.42.06-.76.18-1.04.12-.26.32-.46.58-.58.26-.12.6-.18,1.02-.18h7.75c.46,0,.82.1,1.04.32.22.2.34.48.34.82s-.12.62-.34.82-.58.32-1.04.32Z"/><path class="cls-1" d="M92.52,1.78v10.55h5.95c.48,0,.84.12,1.1.34s.38.52.38.88-.12.64-.38.86c-.26.22-.62.34-1.1.34h-7.09c-.64,0-1.1-.14-1.38-.42s-.42-.74-.42-1.38V1.78c0-.6.14-1.04.4-1.34s.62-.44,1.06-.44.8.14,1.08.44c.26.3.4.74.4,1.34Z"/><path class="cls-1" d="M111.41,2.52h-6.61v3.56h6.09c.44,0,.78.1,1,.3.22.2.34.46.34.8,0,.32-.1.6-.32.8s-.56.32-1,.32h-6.09v4.11h6.83c.46,0,.8.1,1.04.32s.36.5.36.86c0,.34-.12.62-.36.84s-.58.32-1.04.32h-7.97c-.64,0-1.1-.14-1.38-.42-.28-.28-.42-.74-.42-1.38V2.04c0-.42.06-.76.18-1.04.12-.26.32-.46.58-.58.26-.12.6-.18,1.02-.18h7.75c.46,0,.82.1,1.04.32.22.2.34.48.34.82s-.12.62-.34.82-.58.32-1.04.32Z"/><path class="cls-1" d="M127.69,10.17c0,.46-.12.96-.34,1.5-.22.54-.58,1.06-1.08,1.58-.48.52-1.12.94-1.86,1.26-.76.32-1.64.48-2.66.48-.76,0-1.46-.08-2.08-.22-.62-.14-1.2-.38-1.7-.68-.52-.3-.98-.72-1.4-1.22-.38-.46-.7-.96-.98-1.52s-.48-1.16-.6-1.8c-.14-.64-.2-1.32-.2-2.04,0-1.16.18-2.22.5-3.14.34-.92.82-1.72,1.46-2.36.64-.66,1.38-1.16,2.22-1.5C119.84.18,120.74,0,121.7,0,122.88,0,123.91.24,124.83.7c.92.46,1.62,1.04,2.1,1.74.48.68.74,1.34.74,1.96,0,.34-.12.64-.36.9s-.52.38-.86.38c-.38,0-.66-.08-.84-.26s-.4-.48-.62-.92c-.38-.72-.84-1.26-1.36-1.62-.52-.36-1.16-.54-1.92-.54-1.2,0-2.16.46-2.88,1.38-.72.92-1.08,2.22-1.08,3.89,0,1.12.16,2.06.48,2.82.32.76.76,1.32,1.34,1.68s1.26.56,2.04.56c.84,0,1.56-.2,2.14-.62s1.02-1.04,1.32-1.84c.12-.38.28-.7.46-.94.18-.24.48-.36.9-.36.34,0,.66.12.9.36.24.22.36.52.36.9Z"/><path class="cls-1" d="M139.75,2.68h-3.2v10.53c0,.6-.14,1.06-.4,1.36-.28.3-.62.44-1.04.44s-.78-.14-1.06-.44c-.28-.3-.42-.74-.42-1.34V2.68h-3.2c-.5,0-.88-.12-1.12-.34s-.36-.52-.36-.88c0-.38.12-.68.38-.9.26-.22.62-.32,1.1-.32h9.33c.5,0,.88.12,1.14.34s.38.52.38.88-.12.66-.38.88c-.3.22-.66.34-1.16.34Z"/><path class="cls-1" d="M146.92,8.53h-1.02v4.65c0,.62-.14,1.06-.4,1.36-.26.28-.62.44-1.06.44s-.84-.16-1.08-.46c-.26-.3-.38-.74-.38-1.34V2.04c0-.64.14-1.1.42-1.38.28-.28.74-.42,1.38-.42h4.77c.66,0,1.22.02,1.7.08.46.06.9.18,1.26.34.46.2.86.46,1.2.82.36.36.62.76.8,1.24s.28.98.28,1.5c0,1.08-.3,1.94-.92,2.6-.6.64-1.54,1.1-2.78,1.38.52.28,1.02.68,1.5,1.22.48.54.9,1.12,1.28,1.72s.66,1.16.88,1.66c.2.5.32.84.32,1.02,0,.2-.06.38-.18.56-.12.18-.28.34-.5.44s-.46.16-.74.16c-.34,0-.6-.08-.84-.24-.22-.16-.42-.36-.58-.58-.16-.24-.38-.58-.66-1.04l-1.18-1.96c-.42-.72-.8-1.26-1.14-1.64s-.68-.64-1.02-.78c-.36-.12-.8-.2-1.32-.2ZM148.6,2.46h-2.72v3.97h2.64c.7,0,1.3-.06,1.78-.18s.84-.32,1.1-.62.38-.7.38-1.22c0-.4-.1-.76-.3-1.06-.2-.3-.48-.54-.86-.68-.32-.16-1-.22-2.02-.22Z"/><path class="cls-1" d="M157.65,13.18V1.78c0-.6.14-1.04.4-1.34s.62-.44,1.04-.44.8.14,1.08.44c.28.3.42.74.42,1.34v11.4c0,.6-.14,1.04-.42,1.34-.28.3-.62.44-1.08.44-.42,0-.76-.16-1.04-.46-.26-.26-.4-.72-.4-1.32Z"/><path class="cls-1" d="M176.23,10.17c0,.46-.12.96-.34,1.5-.22.54-.58,1.06-1.08,1.58-.48.52-1.12.94-1.88,1.26-.76.32-1.64.48-2.66.48-.76,0-1.46-.08-2.08-.22-.62-.14-1.2-.38-1.7-.68-.52-.3-.98-.72-1.42-1.22-.38-.46-.72-.96-.98-1.52-.26-.56-.48-1.16-.6-1.8-.14-.64-.2-1.32-.2-2.04,0-1.16.18-2.22.52-3.14.34-.92.82-1.72,1.46-2.36.64-.66,1.38-1.16,2.22-1.5C168.36.18,169.25,0,170.21,0,171.39,0,172.43.24,173.35.7c.92.46,1.62,1.04,2.1,1.74.48.68.74,1.34.74,1.96,0,.34-.12.64-.36.9s-.52.38-.86.38c-.38,0-.66-.08-.84-.26s-.4-.48-.62-.92c-.38-.72-.84-1.26-1.36-1.62-.52-.36-1.16-.54-1.92-.54-1.2,0-2.16.46-2.88,1.38-.72.92-1.08,2.22-1.08,3.89,0,1.12.16,2.06.48,2.82.32.76.76,1.32,1.34,1.68.58.36,1.26.56,2.04.56.84,0,1.56-.2,2.14-.62s1.02-1.04,1.32-1.84c.12-.38.28-.7.46-.94.18-.24.48-.36.9-.36.34,0,.64.12.9.36.24.22.38.52.38.9Z"/></svg>