<svg version="1.1" id="Ebene_1" xmlns="http://www.w3.org/2000/svg" xmlns:xlink="http://www.w3.org/1999/xlink" x="0" y="0" viewBox="0 0 294.3 39.3" xml:space="preserve" enable-background="new 0 0 294.3 39.3"><style type="text/css">.st0{fill:#fff}.st1{fill:#d9073a}</style><polygon class="st0" points="1.6,37.4 16.3,22.9 16.3,33.2 37.8,7.9 37.8,1.2 22.7,17.2 22.7,5.5 1.6,30.7"/><polygon class="st1" points="17.5,30.7 17.5,19.5 1.6,37.4 37.8,37.4 37.8,7.9"/><polygon class="st1" points="1.6,1.2 1.6,30.7 21.8,7.9 21.8,19.1 37.8,1.2"/><polygon points="81.4,1.2 71.9,28.6 71.8,28.6 62.2,1.2 52.9,1.2 52.9,37.4 59.6,37.4 59.6,10.3 59.7,10.3 68.9,37.4 74.6,37.4 83.8,10.3 83.9,10.3 84,10.3 84,37.4 90.7,37.4 90.7,1.2"/><polygon points="96.7,1.2 96.7,37.4 116.1,37.4 116.1,31.1 103.4,31.1 103.4,22.6 115.6,22.6 115.6,16.3 103.4,16.3 103.4,7.5 116.1,7.5 116.1,1.2"/><polygon points="144.9,1.2 144.9,27.5 144.8,27.5 129.9,1.2 122.2,1.2 122.2,37.4 128.9,37.4 128.9,11.1 129,11.1 144.1,37.4 151.6,37.4 151.6,1.2"/><polygon points="180.3,1.2 180.3,27.5 180.2,27.5 165.3,1.2 157.7,1.2 157.7,37.4 164.4,37.4 164.4,11.1 164.5,11.1 179.6,37.4 187,37.4 187,1.2"/><polygon points="193.1,1.2 193.1,37.4 212.5,37.4 212.5,31.1 199.7,31.1 199.7,22.6 212,22.6 212,16.3 199.7,16.3 199.7,7.5 212.5,7.5 212.5,1.2"/><polygon points="236.5,1.2 225.3,16.9 225.2,16.9 225.2,1.2 218.5,1.2 218.5,37.4 225.2,37.4 225.2,21.5 225.3,21.5 236.5,37.4 244.4,37.4 230.8,19 244.4,1.2"/><polygon points="247.2,1.2 247.2,37.4 266.6,37.4 266.6,31.1 253.9,31.1 253.9,22.6 266.1,22.6 266.1,16.3 253.9,16.3 253.9,7.5 266.6,7.5 266.6,1.2"/><path d="M269.9,27c0.4,8,7.1,11.1,11.8,11.1c5.7,0,11.7-3.7,11.7-11.5c0-7.9-6.5-10.2-9.5-11.1c-3.7-1.2-6-1.9-6-5	c0-2.1,1.6-3.7,3.7-3.7c1.8,0,3.8,0.8,4.1,4.1h6.8c-0.3-7.4-6.5-10.3-10.7-10.3c-6.1,0-10.6,4.5-10.6,10.3c0,7.6,5.8,9.3,8.6,10.4	c4.5,1.7,6.9,2.4,6.9,6.1c0,2.7-2.3,4.5-5,4.5c-2.1,0-4.4-1.2-4.8-4.8H269.9z"/></svg>