<?xml version="1.0" encoding="UTF-8"?> <svg xmlns="http://www.w3.org/2000/svg" xmlns:xlink="http://www.w3.org/1999/xlink" version="1.1" id="Calque_1" x="0px" y="0px" viewBox="0 0 600 377.8" style="enable-background:new 0 0 600 377.8;" xml:space="preserve"> <style type="text/css"> .st0{fill:none;} .st1{fill:none;stroke:#9DC683;stroke-width:2;stroke-linecap:round;stroke-linejoin:round;stroke-miterlimit:10;} .st2{fill:none;stroke:#68A740;stroke-width:10;stroke-linecap:round;stroke-linejoin:round;stroke-miterlimit:10;} .st3{fill:#FFFFFF;} .st4{fill:#778CFF;} .st5{fill:none;stroke:#1E1E1C;stroke-width:4;stroke-linecap:round;stroke-linejoin:round;} .st6{fill:none;stroke:#778CFF;stroke-width:2.8602;stroke-linecap:round;stroke-linejoin:round;stroke-miterlimit:10;} .st7{fill:none;stroke:#A7B4FF;stroke-width:2.8602;stroke-linecap:round;stroke-linejoin:round;stroke-miterlimit:10;} .st8{fill:#A7B4FF;} .st9{fill:none;stroke:#FFFFFF;stroke-width:2.7866;stroke-linecap:round;stroke-linejoin:round;stroke-miterlimit:10;} .st10{fill:none;stroke:#1E1E1C;stroke-width:2;stroke-linecap:round;stroke-linejoin:round;stroke-miterlimit:10;} .st11{fill:none;stroke:#FFFFFF;stroke-width:2;stroke-linecap:round;stroke-linejoin:round;stroke-miterlimit:10;} .st12{fill:none;stroke:#97EFCC;stroke-width:2;stroke-linecap:round;stroke-linejoin:round;stroke-miterlimit:10;} .st13{fill:none;stroke:#050407;stroke-width:2;stroke-linecap:round;stroke-linejoin:round;stroke-miterlimit:10;} .st14{fill:none;stroke:#97EFCC;stroke-width:4;stroke-linecap:round;stroke-linejoin:round;stroke-miterlimit:10;} .st15{fill:none;stroke:#2FE09A;stroke-width:4;stroke-linecap:round;stroke-linejoin:round;stroke-miterlimit:10;} .st16{fill:none;stroke:#000000;stroke-width:4;stroke-linecap:round;stroke-linejoin:round;stroke-miterlimit:10;} .st17{fill:none;stroke:#2FE09A;stroke-width:2;stroke-linecap:round;stroke-linejoin:round;stroke-miterlimit:10;} .st18{fill:none;stroke:#000000;stroke-width:4;stroke-miterlimit:10;} .st19{fill:none;stroke:#1E1E1C;stroke-width:4;stroke-linecap:round;stroke-linejoin:round;stroke-miterlimit:10;} .st20{fill:none;stroke:#D7E23D;stroke-width:4;stroke-linecap:round;stroke-linejoin:round;stroke-miterlimit:10;} .st21{fill:#050407;} .st22{fill:none;stroke:#E5EC81;stroke-width:2;stroke-linecap:round;stroke-linejoin:round;stroke-miterlimit:10;} .st23{fill:none;stroke:#E57272;stroke-width:4;stroke-linecap:round;stroke-linejoin:round;stroke-miterlimit:10;} .st24{fill:none;stroke:#E57272;stroke-width:2;stroke-linecap:round;stroke-linejoin:round;stroke-miterlimit:10;} .st25{fill:none;stroke:#1E1E1C;stroke-width:2.5114;stroke-linecap:round;stroke-linejoin:round;stroke-miterlimit:10;} .st26{fill:none;stroke:#24D1E3;stroke-width:2;stroke-linecap:round;stroke-linejoin:round;stroke-miterlimit:10;} .st27{fill:none;stroke:#96185E;stroke-width:2;stroke-linecap:round;stroke-linejoin:round;stroke-miterlimit:10;} .st28{fill:none;stroke:#E3CB24;stroke-width:2;stroke-linecap:round;stroke-linejoin:round;stroke-miterlimit:10;} .st29{fill:none;stroke:#FFFFFF;stroke-width:4;stroke-linecap:round;stroke-linejoin:round;stroke-miterlimit:10;} .st30{fill:none;stroke:#EADFE9;stroke-width:4;stroke-linecap:round;stroke-linejoin:round;stroke-miterlimit:10;} </style> <rect y="-0.7" class="st0" width="600" height="378"></rect> <polyline class="st9" points="50.2,176 5.8,176 5.8,371.5 594.2,371.5 594.2,176 549.4,176 "></polyline> <g> <g> <g> <rect x="87.9" y="64" class="st19" width="275.8" height="192.4"></rect> <rect x="101.6" y="76.7" class="st19" width="248.4" height="165.7"></rect> <polyline class="st19" points="385.4,293.7 253.3,293.7 87.9,256.9 363.7,256.9 383.1,261.2 "></polyline> <polyline class="st19" points="510.6,289.6 529.1,293.7 507.3,293.7 "></polyline> <polyline class="st19" points="253.3,293.7 244.6,300.4 87.5,265 87.9,256.9 "></polyline> <polyline class="st19" points="507.3,300.4 522.2,300.4 529.1,293.7 "></polyline> <line class="st19" x1="244.6" y1="300.4" x2="385.4" y2="300.4"></line> </g> <g> <g> <path class="st29" d="M495.2,319c0,1.9-1.5,3.4-3.4,3.4h-91.2c-1.9,0-3.4-1.5-3.4-3.4V147c0-1.9,1.5-3.4,3.4-3.4h91.2 c1.9,0,3.4,1.5,3.4,3.4L495.2,319L495.2,319z"></path> </g> <line class="st29" x1="498.7" y1="168.2" x2="498.7" y2="187.6"></line> <line class="st29" x1="393.2" y1="168.2" x2="393.2" y2="180.2"></line> <line class="st29" x1="393.2" y1="193.7" x2="393.2" y2="205.7"></line> <polyline class="st30" points="481,246.9 412,246.9 412,177.9 "></polyline> <path class="st30" d="M412,222.7l13.4-21.4c0,0,14.5,21,15.7,21.4c1.2,0.4,14.1-23.1,14.1-23.1l4.9,9.7l20.9-29.1"></path> </g> </g> <polyline class="st30" points="307.9,205.7 132.3,205.7 132.3,119.9 "></polyline> <path class="st30" d="M132.3,175.6l34.1-26.6c0,0,37,26.1,39.9,26.6s36-28.6,36-28.6l12.6,12l53.1-36.2"></path> </g> </svg> 