<svg xmlns="http://www.w3.org/2000/svg" xmlns:xlink="http://www.w3.org/1999/xlink" viewBox="0 0 926.07 216.9"><defs><style>.cls-1{fill:url(#radial-gradient);}.cls-2{fill:url(#radial-gradient-2);}.cls-3{fill:url(#radial-gradient-3);}.cls-4{fill:url(#radial-gradient-4);}.cls-5{fill:url(#radial-gradient-5);}.cls-6{fill:url(#radial-gradient-6);}.cls-7{fill:url(#radial-gradient-7);}.cls-8{fill:url(#radial-gradient-8);}.cls-9{fill:url(#radial-gradient-9);}.cls-10{fill:#1d2088;}</style><radialGradient id="radial-gradient" cx="128.93" cy="144.67" r="141.23" gradientUnits="userSpaceOnUse"><stop offset="0.02" stop-color="#e60012"/><stop offset="0.24" stop-color="#e60012"/><stop offset="0.55" stop-color="#e72410"/><stop offset="0.65" stop-color="#e83e0b"/><stop offset="0.83" stop-color="#f18d00"/><stop offset="1" stop-color="#ffe100"/></radialGradient><radialGradient id="radial-gradient-2" cx="128.93" cy="144.68" r="141.23" xlink:href="#radial-gradient"/><radialGradient id="radial-gradient-3" cx="128.93" cy="144.68" r="141.24" xlink:href="#radial-gradient"/><radialGradient id="radial-gradient-4" cx="128.93" cy="144.67" r="141.23" xlink:href="#radial-gradient"/><radialGradient id="radial-gradient-5" cx="128.93" cy="144.67" r="141.24" xlink:href="#radial-gradient"/><radialGradient id="radial-gradient-6" cx="128.93" cy="144.68" r="141.23" xlink:href="#radial-gradient"/><radialGradient id="radial-gradient-7" cx="128.96" cy="144.67" r="141.2" xlink:href="#radial-gradient"/><radialGradient id="radial-gradient-8" cx="128.93" cy="144.68" r="141.23" xlink:href="#radial-gradient"/><radialGradient id="radial-gradient-9" cx="127.01" cy="116.86" r="65.2" gradientUnits="userSpaceOnUse"><stop offset="0" stop-color="#fff100"/><stop offset="0.35" stop-color="#ee7800"/><stop offset="0.5" stop-color="#e94709"/><stop offset="0.65" stop-color="#e72410"/><stop offset="0.81" stop-color="#e61211"/><stop offset="1" stop-color="#e60012"/></radialGradient></defs><title>logo</title><g id="图层_2" data-name="图层 2"><g id="图层_1-2" data-name="图层 1"><path class="cls-1" d="M24.84,134.5s6.56,16.5,29,19.68C65,155.59,84.65,144,87.8,142.12a46.81,46.81,0,0,1-3.86-7.62Z"/><path class="cls-2" d="M82.15,129.06a47,47,0,0,1-1.51-11.85s0-.09,0-.13C73.71,113.67,12.26,83.47,1.38,81c0,0-8.95,19.08,18.69,41.54C29.8,128.8,64.12,131,82.15,129.06Z"/><path class="cls-3" d="M36.91,27.56s-20,13.42-20,28.92S26,78.1,36.61,84.8s44,23.26,44,23.26l.87.42a46.65,46.65,0,0,1,8.29-19C84.48,82.28,50.11,35.94,36.91,27.56Z"/><path class="cls-4" d="M71.05,21.59c-6.84,21.12,16.6,50,25.29,60.61a46.72,46.72,0,0,1,25.35-11.53l0-.26S129.49,35.91,108.32,0C108.32,0,77.91.42,71.05,21.59Z"/><path class="cls-5" d="M167.31,142.12c3.14,1.9,22.81,13.47,33.94,12.06,22.47-3.18,29-19.68,29-19.68H171.18A46.51,46.51,0,0,1,167.31,142.12Z"/><path class="cls-6" d="M253.74,81c-10.87,2.44-72.33,32.64-79.26,36.06,0,0,0,.09,0,.13A46.91,46.91,0,0,1,173,129.06c18,2,52.36-.26,62.09-6.49C262.68,100.11,253.74,81,253.74,81Z"/><path class="cls-7" d="M174.53,108.06s33.39-16.55,44-23.26S238.18,72,238.18,56.48s-20-28.92-20-28.92c-13.2,8.39-47.57,54.73-52.84,61.88a46.65,46.65,0,0,1,8.31,19.14Z"/><path class="cls-8" d="M184.07,21.59C177.2.42,146.79,0,146.79,0c-21.17,35.91-13.42,70.41-13.42,70.41l0,.26A46.72,46.72,0,0,1,158.78,82.2C167.47,71.56,190.91,42.72,184.07,21.59Z"/><circle class="cls-9" cx="127.56" cy="117.22" r="46.93"/><path class="cls-10" d="M9,184.44V178H38.7v6.45H27.82v32H19.91v-32Z"/><path class="cls-10" d="M47.39,216.49H39.88L53.13,178h9.29l12.85,38.5H67.36l-2.77-8.12H50.16Zm4.75-14.57H62.62l-4.94-16.44h-.2Z"/><path class="cls-10" d="M102.75,216.49H79.23V178h7.71v32h15.82Z"/><path class="cls-10" d="M106.71,216.49V178h24.52v6.45H114.62v8.95H130v6.45H114.62V210h17.2v6.45Z"/><path class="cls-10" d="M165,189h-7.51q-.4-5.82-5.93-5.83-5.74.42-5.93,5-.4,4.37,6.72,5.41l.79.42q13,2.71,12.85,10.41-.4,12.07-15.62,12.49-14.43-.21-14-12.69h7.91q0,6.87,6.13,7.08,7.12-.2,7.32-5,0-3.75-6.92-5.41c-.53-.14-1-.28-1.38-.42q-12.26-2.7-12.06-10.61.59-11.65,15.22-12.7Q164.44,178,165,189Z"/><path class="cls-10" d="M195.87,178h7.91v24.14q-.59,14.36-15.82,14.78-15.62-.42-16-14.78V178h7.91v21q-.79,12.91,8.11,12.28,8.5.63,7.91-12.28Z"/><path class="cls-10" d="M243.91,216.49H232.64l-14.23-32-.2.21v31.84H210.9V178h11.66l13.84,30.38.2-.21V178h7.32Z"/><path class="cls-10" d="M417.67,97.06a53.43,53.43,0,0,0,21.85,15.34c-2.94,2.17-6.67,7-8.68,10.23a64.38,64.38,0,0,1-16.74-11.78c-1.39,7.44-3.1,15.81-4.8,22.17h20.62s-.16,3.57-.46,5.27c-2.33,25.58-4.5,36.12-8.68,40.15-2.63,3.1-5.58,4-9.92,4.49-3.72.16-10.38.16-17.67-.31a25.23,25.23,0,0,0-3.41-11.31c6.67.62,13,.77,15.65.77,2.33,0,3.88-.31,5.12-1.55,2.48-2.33,4.34-9.61,6-26.66H356.91a208.93,208.93,0,0,0,5.12-22l12.25,1.08c-.62,3.25-1.4,6.67-2,10.08h24.18c1.08-4.18,2.32-9.14,3.1-14H360.94v-4.34a89.51,89.51,0,0,1-12.4,8.83c-1.39-1.71-4.34-5.42-6.82-8.06V168c0,6.2-1.08,9.92-4.8,12.09-3.87,2.17-9.3,2.32-18.14,2.32a45.85,45.85,0,0,0-3.41-12.09c5.42.16,10.38.16,12.09,0,1.71,0,2.32-.46,2.32-2.48V132.4H312.43c-1.08,18-3.41,36.89-8.53,51.3a45.85,45.85,0,0,0-10.85-5.89c7.91-21.7,8.37-52.85,8.37-75.17V47.15h40.3v65.41a74.46,74.46,0,0,0,18.91-15.5H344.36V85.74h24.33a104.41,104.41,0,0,0,5.58-11H348.7V63.58h11.16c-.93-5-3.87-12.25-7-17.67l10.85-3.25a58.35,58.35,0,0,1,7.59,17.51L361.1,63.58H378a163.05,163.05,0,0,0,4.8-21.85l12.87,1.4a181.65,181.65,0,0,1-4.5,20.46h22.32l-9-2.79a136.53,136.53,0,0,0,7.29-18L425,46.53c-3.25,6.2-6.51,12.71-9.3,17h16.43V74.74H387.6a102.13,102.13,0,0,1-4.65,11h53.63V97.06Zm-87.88,22V95.82H313.2v6.67c0,5.11,0,10.69-.16,16.58ZM313.2,60.32V82.64h16.58V60.32ZM406,162.62H349.32V152.55H406Zm6.2-53.94a68.71,68.71,0,0,1-8.68-11.62H376.44a97.46,97.46,0,0,1-9.15,11.62Z"/><path class="cls-10" d="M501.68,154.4H474.56v12.4H463.09V52.42h38.59ZM474.56,65V96.75H489.9V65Zm15.34,76.57v-32.4H474.56v32.4Zm109.43,16.12h-36v25.73H549.58V157.66H506.8V144.48h42.78v-16H532.22c-6.82,0-12.55.93-13.79,2.33a103.32,103.32,0,0,0-4.49-12.55c2.79-.62,5.11-4.19,7.75-9.3,1.24-2.32,3.72-7.28,6.51-13.64H515.48V83.73h17.36c2-5.27,3.88-10.85,5.42-16.43l14,3.1c-1.39,4.34-3.1,9-4.8,13.33h42V95.35h-47c-3.25,7.28-6.67,14.41-10.08,20.46h17.21V100.93h13.79v14.88h30.38v12.71H563.37v16h36ZM522,80.16H508.66V49.32h87.57V80.16H582.44v-18H522Z"/><path class="cls-10" d="M742.4,167.11c4.34,0,5.27-2,5.74-13.79,3.25,2.33,9.3,4.65,13.33,5.58-1.71,17.21-5.58,21.85-17.83,21.85h-22c-15.65,0-19.37-4.34-19.37-19.37V111.63H679.78c-2.79,33.94-10.54,58.9-49.13,72.69a41,41,0,0,0-9-12.4c35-11.16,40.77-32.08,43.09-60.29H624.29v-14H684V41.1h15V97.68h59.52v14H716.82v49.6c0,5.12.93,5.89,6.67,5.89ZM657.15,90.24c-4.18-8.68-14-22.47-22.32-32.7l11.63-6.67C655,60.63,665.05,74,669.55,82.64Zm94.08-33a292.13,292.13,0,0,1-24.64,32.86l-12.4-5.27c7.44-8.68,16.89-22.63,22-33.17Z"/><path class="cls-10" d="M832.3,45.91a241.54,241.54,0,0,1-14.88,32.24V183.86H803V100.93a156.92,156.92,0,0,1-13.33,16.12,106,106,0,0,0-7.91-14.88c14.57-14.57,28.52-37.35,36.74-60.45Zm49,54.09c7.59,31.46,21.85,58,44.79,71.14a56.57,56.57,0,0,0-10.85,12.55C896,171.15,883.29,150.06,874.61,124c-5.58,21.08-16.74,42.32-38.91,60-2.79-3.25-7.9-7-11.93-9.61,28.67-22.47,37.51-49.91,40.14-74.4H826.1V85.9h38.75c.15-2.32.15-4.5.15-6.82V42h14.57v37c0,2.32,0,4.5-.16,6.82h44.17V100ZM906.7,79.23c-3.41-7.13-10.85-18.75-17.36-27.43l10.85-6.2c6.67,8.22,14.57,19.53,18.29,26.5Z"/></g></g></svg>